<?xml version="1.0" encoding="UTF-8"?>
<svg width="93" height="93" viewBox="0 0 93 93" xmlns="http://www.w3.org/2000/svg"><g fill-rule="nonzero" fill="#ED3536"><path d="M46.5 23.914a3.997 3.997 0 0 1-3.986-3.985V3.986A3.997 3.997 0 0 1 46.5 0a3.997 3.997 0 0 1 3.986 3.986v15.943a3.997 3.997 0 0 1-3.986 3.985" opacity=".65"/><path d="M57.793 26.94a3.997 3.997 0 0 1-1.459-5.444l7.972-13.807A3.997 3.997 0 0 1 69.75 6.23a3.997 3.997 0 0 1 1.459 5.445l-7.972 13.806a3.997 3.997 0 0 1-5.444 1.46" opacity=".75"/><path d="M66.06 35.207a3.997 3.997 0 0 1 1.459-5.444l13.806-7.972a3.997 3.997 0 0 1 5.445 1.459 3.997 3.997 0 0 1-1.46 5.444l-13.806 7.972a3.997 3.997 0 0 1-5.444-1.459" opacity=".85"/><path d="M69.086 46.5a3.997 3.997 0 0 1 3.985-3.986h15.943A3.997 3.997 0 0 1 93 46.5a3.997 3.997 0 0 1-3.986 3.986H73.071a3.997 3.997 0 0 1-3.985-3.986"/><path d="M66.06 57.793a3.997 3.997 0 0 1 5.444-1.459l13.807 7.972a3.997 3.997 0 0 1 1.459 5.444 3.997 3.997 0 0 1-5.445 1.459l-13.806-7.972a3.997 3.997 0 0 1-1.46-5.444" opacity=".2"/><path d="M57.793 66.06a3.997 3.997 0 0 1 5.444 1.459l7.972 13.806a3.997 3.997 0 0 1-1.459 5.445 3.997 3.997 0 0 1-5.444-1.46l-7.972-13.806a3.997 3.997 0 0 1 1.459-5.444" opacity=".25"/><path d="M46.5 69.086a3.997 3.997 0 0 1 3.986 3.985v15.943A3.997 3.997 0 0 1 46.5 93a3.997 3.997 0 0 1-3.986-3.986V73.071a3.997 3.997 0 0 1 3.986-3.985" opacity=".3"/><path d="M35.207 66.06a3.997 3.997 0 0 1 1.459 5.444l-7.972 13.807a3.997 3.997 0 0 1-5.444 1.459 3.997 3.997 0 0 1-1.459-5.445l7.972-13.806a3.997 3.997 0 0 1 5.444-1.46" opacity=".35"/><path d="M26.94 57.793a3.997 3.997 0 0 1-1.459 5.444L11.675 71.21A3.997 3.997 0 0 1 6.23 69.75a3.997 3.997 0 0 1 1.46-5.444l13.806-7.972a3.997 3.997 0 0 1 5.444 1.459" opacity=".4"/><path d="M23.914 46.5a3.997 3.997 0 0 1-3.985 3.986H3.986A3.997 3.997 0 0 1 0 46.5a3.997 3.997 0 0 1 3.986-3.986h15.943a3.997 3.997 0 0 1 3.985 3.986" opacity=".45"/><path d="M26.94 35.207a3.997 3.997 0 0 1-5.444 1.459L7.689 28.694A3.997 3.997 0 0 1 6.23 23.25a3.997 3.997 0 0 1 5.445-1.459l13.806 7.972a3.997 3.997 0 0 1 1.46 5.444" opacity=".5"/><path d="M35.207 26.94a3.997 3.997 0 0 1-5.444-1.459L21.79 11.675A3.997 3.997 0 0 1 23.25 6.23a3.997 3.997 0 0 1 5.444 1.46l7.972 13.806a3.997 3.997 0 0 1-1.459 5.444" opacity=".55"/></g></svg>