<svg xmlns="http://www.w3.org/2000/svg" viewBox="0 0 40 40"><defs><style>.cls-1{fill:#00c3ff;}</style></defs><title>Save File Icon</title><g id="Layer_2" data-name="Layer 2"><g id="Cameras"><g id="Camera_Control_Search_Frame" data-name="Camera Control/Search Frame"><g id="Save_File_Bar" data-name="Save File Bar"><rect class="cls-1" x="7.25" y="32.34" width="25.5" height="0.88"/><rect class="cls-1" x="7.25" y="27.41" width="25.5" height="0.88"/><rect class="cls-1" x="7.25" y="22.48" width="25.5" height="0.88"/><rect class="cls-1" x="7.25" y="17.55" width="25.5" height="0.88"/><path class="cls-1" d="M39.42,8,32,.59A2,2,0,0,0,30.6,0H1.84A1.85,1.85,0,0,0,0,1.84V38.16A1.85,1.85,0,0,0,1.84,40H38.16A1.85,1.85,0,0,0,40,38.16V9.43A2,2,0,0,0,39.42,8ZM7.71.88h19V9.22a1.27,1.27,0,0,1-1.27,1.27H9A1.26,1.26,0,0,1,7.71,9.22ZM36,36.06H4V14.51H36Z"/><path class="cls-1" d="M18.82,9.42h3c.35,0,.64-.45.64-1V1.73H18.19V8.42C18.19,9,18.48,9.42,18.82,9.42Z"/></g></g></g></g></svg>