<svg xmlns="http://www.w3.org/2000/svg" viewBox="0 0 39.02 39.02"><defs><style>.cls-1{fill:#00c3ff;}</style></defs><title>Search Icon</title><g id="Layer_2" data-name="Layer 2"><g id="Cameras"><g id="Camera_Control_Search_Frame" data-name="Camera Control/Search Frame"><g id="Search_Playback_Calendar" data-name="Search Playback/Calendar"><g id="Search_Icon" data-name="Search Icon"><path class="cls-1" d="M38,32.78l-9-9A17.29,17.29,0,0,1,23.82,29l9,9A3.66,3.66,0,0,0,38,32.78Z"/><path class="cls-1" d="M29.27,14.63A14.64,14.64,0,1,0,14.63,29.27,14.63,14.63,0,0,0,29.27,14.63Zm-14.64,11a11,11,0,1,1,11-11,11,11,0,0,1-11,11Z"/><path class="cls-1" d="M6.1,14.63H8.54a6.09,6.09,0,0,1,6.09-6.09V6.1A8.54,8.54,0,0,0,6.1,14.63Z"/></g></g></g></g></g></svg>