<svg id="Up" xmlns="http://www.w3.org/2000/svg" xmlns:xlink="http://www.w3.org/1999/xlink" viewBox="0 0 101.34 96.99"><defs><style>.cls-1{fill:#848484;}.cls-2{stroke-miterlimit:10;fill:url(#linear-gradient);stroke:url(#linear-gradient-2);}</style><linearGradient id="linear-gradient" x1="170.37" y1="137.17" x2="230.98" y2="137.17" gradientTransform="translate(15.2 -183.13) rotate(45)" gradientUnits="userSpaceOnUse"><stop offset="0" stop-color="#848484" stop-opacity="0.7"/><stop offset="1" stop-color="#848484" stop-opacity="0"/></linearGradient><linearGradient id="linear-gradient-2" x1="169.87" y1="137.17" x2="231.14" y2="137.17" gradientTransform="translate(15.2 -183.13) rotate(45)" gradientUnits="userSpaceOnUse"><stop offset="0" stop-color="#848484"/><stop offset="0.33" stop-color="#848484" stop-opacity="0.98"/><stop offset="0.49" stop-color="#848484" stop-opacity="0.92"/><stop offset="0.62" stop-color="#848484" stop-opacity="0.82"/><stop offset="0.73" stop-color="#848484" stop-opacity="0.68"/><stop offset="0.83" stop-color="#848484" stop-opacity="0.5"/><stop offset="0.92" stop-color="#848484" stop-opacity="0.27"/><stop offset="1" stop-color="#848484" stop-opacity="0.01"/><stop offset="1" stop-color="#848484" stop-opacity="0"/></linearGradient></defs><title>360 Cam Lower_Right-Up Icon</title><g id="Cam_360_Icon" data-name="Cam 360 Icon"><path class="cls-1" d="M104.21,79.86H80.79a3.24,3.24,0,0,0-3.24,3.24v18.8a3.24,3.24,0,0,0,3.24,3.24h23.42a3.24,3.24,0,0,0,3.24-3.24V83.1A3.24,3.24,0,0,0,104.21,79.86ZM92.77,104.61a12.08,12.08,0,1,1,12.07-12.07A12.07,12.07,0,0,1,92.77,104.61Z" transform="translate(-77.55 -79.86)"/><path class="cls-1" d="M85.32,92.1h.26c1.18,0,1.58,0,1.81-.17s.36-.45.36-1a2.66,2.66,0,0,0-.14-1c-.15-.33-.46-.4-1.75-.4s-1.51.09-1.66.43-.1.25-.12,1.21h-.8c0-1,0-1.27.23-1.62a1.32,1.32,0,0,1,.93-.64,6,6,0,0,1,1.46-.11c1.31,0,1.79.09,2.21.43a1.76,1.76,0,0,1,.47,1.46c0,1.31-.25,1.67-1.25,1.8v0a1.66,1.66,0,0,1,1,.33,1.76,1.76,0,0,1,.42,1.41c0,1.74-.54,2.15-2.73,2.15-1.66,0-2.27-.19-2.61-.78-.21-.38-.23-.51-.23-1.73H84v.28c0,1.43.11,1.5,2.07,1.5a2.9,2.9,0,0,0,1.56-.24c.19-.16.29-.58.29-1.3a1.34,1.34,0,0,0-.26-1c-.22-.24-.48-.3-1.29-.3h-1Z" transform="translate(-77.55 -79.86)"/><path class="cls-1" d="M94.53,90.7v-.27c0-.79-.28-1-1.54-1s-1.72.09-1.94.39a2.14,2.14,0,0,0-.19,1v1.51h0c.39-.54.75-.66,2.15-.66,1.13,0,1.68.14,2,.5a2.41,2.41,0,0,1,.47,1.73c0,1.1-.22,1.8-.69,2.12a3.71,3.71,0,0,1-2.07.32c-1.38,0-2-.17-2.38-.7A2.05,2.05,0,0,1,90,94.2c0-.23,0-.23,0-1.83,0-2.32,0-2.32.2-2.65.32-.72,1-1,2.46-1s2,.14,2.32.5a1.69,1.69,0,0,1,.39,1.21v.26ZM91,92.8a1.64,1.64,0,0,0-.2,1c0,1.62.22,1.82,2.05,1.82.95,0,1.37-.06,1.59-.25a1.91,1.91,0,0,0,.3-1.32c0-.75-.08-1.18-.26-1.36a3,3,0,0,0-1.73-.28C91.76,92.41,91.23,92.52,91,92.8Z" transform="translate(-77.55 -79.86)"/><path class="cls-1" d="M101.89,89.08a1.6,1.6,0,0,1,.67,1,12,12,0,0,1,.1,2.42c0,2.27,0,2.54-.35,3a1.59,1.59,0,0,1-1.06.68,7.09,7.09,0,0,1-1.51.09A3.71,3.71,0,0,1,97.58,96a1.53,1.53,0,0,1-.67-1,12.32,12.32,0,0,1-.1-2.48c0-2.19,0-2.47.34-3a1.65,1.65,0,0,1,1.07-.68,7.09,7.09,0,0,1,1.52-.09C101,88.73,101.42,88.79,101.89,89.08ZM97.81,90a6.47,6.47,0,0,0-.21,2.5,6.48,6.48,0,0,0,.21,2.57c.2.43.62.54,1.93.54s1.71-.11,1.91-.54a6.38,6.38,0,0,0,.21-2.54,6.28,6.28,0,0,0-.21-2.53c-.2-.43-.61-.55-1.91-.55S98,89.57,97.81,90Z" transform="translate(-77.55 -79.86)"/></g><g id="Lens_Beam" data-name="Lens &amp; Beam"><path class="cls-1" d="M118.58,104.44l-6.77-1.82-1.39-.37-5.63,5.63.37,1.39L107,116a1.38,1.38,0,0,0,2.31.62l4.95-5,5-5A1.37,1.37,0,0,0,118.58,104.44Z" transform="translate(-77.55 -79.86)"/><polyline class="cls-2" points="61.96 96.77 33.24 39.76 44.1 28.9 101.11 57.62"/></g></svg>