<svg id="Up" xmlns="http://www.w3.org/2000/svg" xmlns:xlink="http://www.w3.org/1999/xlink" viewBox="0 0 101.34 96.99"><defs><style>.cls-1{fill:#848484;}.cls-2{stroke-miterlimit:10;fill:url(#linear-gradient);stroke:url(#linear-gradient-2);}</style><linearGradient id="linear-gradient" x1="170.37" y1="137.17" x2="230.98" y2="137.17" gradientTransform="translate(15.2 -183.13) rotate(45)" gradientUnits="userSpaceOnUse"><stop offset="0" stop-color="#848484" stop-opacity="0.7"/><stop offset="1" stop-color="#848484" stop-opacity="0"/></linearGradient><linearGradient id="linear-gradient-2" x1="169.87" y1="137.17" x2="231.14" y2="137.17" gradientTransform="translate(15.2 -183.13) rotate(45)" gradientUnits="userSpaceOnUse"><stop offset="0" stop-color="#848484"/><stop offset="0.33" stop-color="#848484" stop-opacity="0.98"/><stop offset="0.49" stop-color="#848484" stop-opacity="0.92"/><stop offset="0.62" stop-color="#848484" stop-opacity="0.82"/><stop offset="0.73" stop-color="#848484" stop-opacity="0.68"/><stop offset="0.83" stop-color="#848484" stop-opacity="0.5"/><stop offset="0.92" stop-color="#848484" stop-opacity="0.27"/><stop offset="1" stop-color="#848484" stop-opacity="0.01"/><stop offset="1" stop-color="#848484" stop-opacity="0"/></linearGradient></defs><title>PTZ Cam Lower_Right-Up Icon</title><g id="Cam_PTZ_Icon" data-name="Cam PTZ Icon"><path class="cls-1" d="M104.21,79.86H80.79a3.24,3.24,0,0,0-3.24,3.24v18.8a3.24,3.24,0,0,0,3.24,3.24h23.42a3.24,3.24,0,0,0,3.24-3.24V83.1A3.24,3.24,0,0,0,104.21,79.86Zm-1.56,23L92.49,98.11v0l-10.17,4.75a16.83,16.83,0,0,1,0-20.71l10.17,4.74v0l10.16-4.75A16.82,16.82,0,0,1,102.65,102.85Z" transform="translate(-77.55 -79.86)"/><path class="cls-1" d="M83.51,89h3.13a3.61,3.61,0,0,1,1.56.18c.62.27.91.94.91,2.13s-.28,1.74-.91,2c-.34.17-.4.17-1.69.19H84.35v2.92h-.84Zm2.83,3.82c1.66,0,1.93-.2,1.93-1.47,0-1-.11-1.34-.46-1.5s-.31-.11-1.2-.12H84.35v3.09Z" transform="translate(-77.55 -79.86)"/><path class="cls-1" d="M92.91,96.48h-.84V89.8H89.65V89h5.68v.8l-2.42,0Z" transform="translate(-77.55 -79.86)"/><path class="cls-1" d="M101.64,89.75l-4.69,6v0h4.79v.72H95.92v-.74l4.68-6v0H96.06V89h5.58Z" transform="translate(-77.55 -79.86)"/></g><g id="Lens_Beam" data-name="Lens &amp; Beam"><path class="cls-1" d="M118.58,104.44l-6.77-1.82-1.39-.37-5.63,5.63.37,1.39L107,116a1.38,1.38,0,0,0,2.31.62l4.95-5,5-5A1.37,1.37,0,0,0,118.58,104.44Z" transform="translate(-77.55 -79.86)"/><polyline class="cls-2" points="61.96 96.77 33.24 39.76 44.1 28.9 101.11 57.62"/></g></svg>